<svg width="18" height="19" viewBox="0 0 18 19" fill="none" xmlns="http://www.w3.org/2000/svg">
<path d="M15.0844 12.0072H14.9951L14.0187 9.72997C14.1843 9.80252 14.3627 9.84114 14.5434 9.84356C14.6152 9.84356 14.684 9.81507 14.7347 9.76435C14.7854 9.71363 14.8139 9.64483 14.8139 9.5731V7.40943C14.8139 7.3377 14.7854 7.2689 14.7347 7.21818C14.684 7.16746 14.6152 7.13897 14.5434 7.13897C14.2618 7.14049 13.9876 7.22993 13.7593 7.39478C13.5309 7.55964 13.3597 7.79168 13.2696 8.05853C13.19 7.94742 13.0884 7.85383 12.9712 7.78358C12.854 7.71333 12.7235 7.66791 12.588 7.65014C12.4162 7.62794 12.2418 7.63896 12.0741 7.68259H11.8388C11.3818 7.68259 11.1789 7.41213 10.8598 6.97128L10.7002 6.7468C10.8639 6.73845 11.0225 6.68715 11.16 6.59805C11.2644 6.5223 11.3527 6.42668 11.42 6.31668C11.4873 6.20668 11.5322 6.08446 11.5522 5.95706C11.6401 5.90642 11.7169 5.83869 11.7783 5.75786C11.8396 5.67704 11.8841 5.58476 11.9092 5.48646C11.9206 5.40893 11.913 5.32978 11.8871 5.25582C11.8612 5.18186 11.8177 5.11529 11.7604 5.06184C11.65 4.87276 11.5895 4.65869 11.5846 4.43978C11.6544 4.4356 11.7199 4.40453 11.7673 4.35309C11.8147 4.30165 11.8404 4.23385 11.8388 4.16391C11.8389 3.87725 11.7819 3.59345 11.6713 3.32898C11.5608 3.06451 11.3987 2.82466 11.1946 2.62335C10.9906 2.42204 10.7485 2.26329 10.4826 2.15632C10.2166 2.04935 9.93205 1.99629 9.64542 2.00024C9.08293 2.01131 8.54657 2.23969 8.14876 2.6375C7.75094 3.03531 7.52256 3.57168 7.51149 4.13416C7.50643 4.42093 7.55887 4.7058 7.66571 4.97197C7.77255 5.23814 7.93162 5.48021 8.13355 5.68389C8.19339 5.74337 8.2566 5.79936 8.32287 5.85158C7.2789 6.10581 6.72986 7.08488 6.44858 7.93412C6.36855 7.85347 6.27332 7.78947 6.16841 7.74584C6.06349 7.7022 5.95097 7.67979 5.83735 7.67989H2.96506C2.82083 7.67965 2.67885 7.71569 2.55218 7.78469C2.42552 7.85369 2.31825 7.95344 2.24023 8.07476C2.20114 8.13501 2.18758 8.20833 2.20255 8.27857C2.21751 8.34882 2.25976 8.41025 2.32002 8.44934C2.38027 8.48844 2.45359 8.50199 2.52384 8.48703C2.59408 8.47207 2.65551 8.42981 2.6946 8.36956C2.72375 8.32441 2.76381 8.28736 2.81109 8.26183C2.85837 8.2363 2.91133 8.22312 2.96506 8.22351H3.4546V9.03489C3.4546 9.10662 3.48309 9.17541 3.53381 9.22613C3.58453 9.27685 3.65333 9.30535 3.72506 9.30535H5.07735C5.14908 9.30535 5.21788 9.27685 5.2686 9.22613C5.31932 9.17541 5.34781 9.10662 5.34781 9.03489V8.22081H5.83735C5.87961 8.22081 5.92146 8.22913 5.96051 8.24531C5.99956 8.26148 6.03504 8.28519 6.06493 8.31507C6.09481 8.34496 6.11852 8.38044 6.13469 8.41949C6.15087 8.45854 6.15919 8.50039 6.15919 8.54265V10.6063C6.15848 10.6911 6.12426 10.7723 6.06397 10.8321C6.00369 10.8919 5.92224 10.9254 5.83735 10.9254H2.96506C2.88761 10.9275 2.81206 10.9012 2.75274 10.8513C2.69342 10.8015 2.65445 10.7316 2.64322 10.6549H3.18414C3.25587 10.6549 3.32466 10.6264 3.37538 10.5757C3.4261 10.525 3.4546 10.4562 3.4546 10.3845C3.4546 10.3128 3.4261 10.244 3.37538 10.1932C3.32466 10.1425 3.25587 10.114 3.18414 10.114H2.64322V9.5731H2.91368C2.98541 9.5731 3.0542 9.54461 3.10492 9.49389C3.15564 9.44317 3.18414 9.37437 3.18414 9.30264C3.18414 9.23091 3.15564 9.16212 3.10492 9.1114C3.0542 9.06068 2.98541 9.03218 2.91368 9.03218H1.56138C1.48965 9.03218 1.42086 9.06068 1.37014 9.1114C1.31941 9.16212 1.29092 9.23091 1.29092 9.30264C1.29092 9.37437 1.31941 9.44317 1.37014 9.49389C1.42086 9.54461 1.48965 9.5731 1.56138 9.5731H2.1023V10.114H1.02046C0.948729 10.114 0.879937 10.1425 0.829216 10.1932C0.778495 10.244 0.75 10.3128 0.75 10.3845C0.75 10.4562 0.778495 10.525 0.829216 10.5757C0.879937 10.6264 0.948729 10.6549 1.02046 10.6549H2.1023C2.11472 10.874 2.21042 11.0801 2.36981 11.2309C2.52919 11.3818 2.74021 11.466 2.95966 11.4663H4.31195C4.1868 11.589 4.0802 11.7294 3.99552 11.8828C3.63434 12.5911 3.44882 13.3759 3.4546 14.1709C3.4546 14.2426 3.48309 14.3114 3.53381 14.3622C3.58453 14.4129 3.65333 14.4414 3.72506 14.4414H4.55537C4.62458 14.9612 4.88021 15.4381 5.27471 15.7836C5.66921 16.129 6.17574 16.3195 6.70011 16.3195C7.22448 16.3195 7.73101 16.129 8.12551 15.7836C8.52002 15.4381 8.77564 14.9612 8.84486 14.4414H12.9396C12.9917 14.8546 13.1619 15.244 13.4298 15.5628C13.6977 15.8817 14.052 16.1165 14.4501 16.2389C14.8481 16.3614 15.2731 16.3664 15.6739 16.2533C16.0747 16.1402 16.4344 15.9138 16.7097 15.6013C16.9851 15.2888 17.1644 14.9035 17.2261 14.4917C17.2878 14.0798 17.2294 13.6588 17.0578 13.2794C16.8862 12.8999 16.6087 12.578 16.2586 12.3523C15.9086 12.1267 15.5008 12.0069 15.0844 12.0072ZM4.80689 8.76172H3.99552V8.22081H4.80689V8.76172ZM14.273 7.72586V9.25667C14.1145 9.20091 13.9772 9.09734 13.8801 8.96024C13.783 8.82314 13.7309 8.65927 13.7309 8.49127C13.7309 8.32326 13.783 8.15939 13.8801 8.02229C13.9772 7.88519 14.1145 7.78162 14.273 7.72586ZM12.5096 8.18294C12.6156 8.19881 12.7141 8.24711 12.7916 8.3212C12.8691 8.39529 12.9217 8.49154 12.9423 8.59674L13.0126 8.76172C12.6361 8.9553 12.216 9.04845 11.7929 9.03218C11.7556 8.87152 11.7751 8.70291 11.8481 8.55501C11.9211 8.4071 12.043 8.28901 12.1931 8.22081C12.2951 8.18773 12.4028 8.17576 12.5096 8.18565V8.18294ZM11.1762 5.54326C11.1312 5.56594 11.0934 5.60075 11.0671 5.64376C11.0409 5.68677 11.0271 5.73627 11.0275 5.78667C11.0255 5.85476 11.0093 5.92168 10.9799 5.98315C10.9506 6.04462 10.9088 6.0993 10.8571 6.14368C10.7029 6.24645 10.4162 6.22211 10.0457 6.07606C10.0259 6.07387 10.006 6.07387 9.9862 6.07606L9.94563 6.0409V5.00504C9.94563 4.85369 10.0058 4.70854 10.1128 4.60152C10.2198 4.4945 10.3649 4.43437 10.5163 4.43437H11.0275C11.036 4.78447 11.1459 5.12458 11.3439 5.41344C11.295 5.46577 11.2384 5.51045 11.1762 5.54596V5.54326ZM8.05241 4.13957C8.06594 3.71994 8.23868 3.32118 8.53556 3.0243C8.83244 2.72743 9.23119 2.55468 9.65083 2.54115H9.67517C10.0588 2.5409 10.4302 2.6766 10.7233 2.92417C11.0164 3.17173 11.2123 3.51515 11.2763 3.89345H10.5163C10.2217 3.89417 9.93938 4.01151 9.73107 4.21982C9.52276 4.42813 9.40542 4.71045 9.40471 5.00504V5.76503C9.0227 5.7005 8.67639 5.50143 8.42837 5.20381C8.18035 4.90619 8.047 4.52965 8.05241 4.14228V4.13957ZM8.86379 6.32759C9.74819 6.32759 10.0727 6.79007 10.4162 7.2769C10.6651 7.63391 10.9571 8.02337 11.444 8.1613C11.2908 8.40875 11.2216 8.69899 11.2465 8.98891C10.9109 8.91558 10.5942 8.77277 10.3171 8.56967C10.0399 8.36658 9.80836 8.1077 9.6373 7.80971C9.62257 7.77396 9.60034 7.74179 9.57212 7.71536C9.5439 7.68893 9.51033 7.66886 9.4737 7.6565C9.43706 7.64415 9.3982 7.63979 9.35974 7.64372C9.32127 7.64765 9.2841 7.65979 9.25072 7.67931C9.21735 7.69883 9.18854 7.72527 9.16625 7.75687C9.14396 7.78846 9.12871 7.82447 9.12152 7.86246C9.11432 7.90045 9.11536 7.93954 9.12455 7.97709C9.13375 8.01465 9.15089 8.0498 9.17482 8.08017C9.27286 8.24469 9.38508 8.40035 9.51019 8.54536L9.48585 8.56158C9.23373 8.85158 9.05638 9.19885 8.96927 9.5731H6.70011V9.30264C6.71904 9.13766 7.02737 6.32759 8.86379 6.32759ZM6.70011 10.6036V10.114H9.13425C9.18834 10.114 10.4865 10.1302 10.4865 11.4663V12.8186H9.40471V12.2777C9.41154 12.0983 9.38124 11.9194 9.3157 11.7522C9.25016 11.5851 9.15079 11.4332 9.02383 11.3063C8.89687 11.1793 8.74505 11.0799 8.57789 11.0144C8.41073 10.9489 8.23183 10.9186 8.05241 10.9254H6.63791C6.67921 10.8231 6.70034 10.7138 6.70011 10.6036ZM6.70011 15.7937C6.3169 15.7933 5.9462 15.6573 5.65364 15.4098C5.36109 15.1623 5.16556 14.8192 5.1017 14.4414H5.65614C5.71842 14.6706 5.85438 14.8729 6.04306 15.0171C6.23173 15.1614 6.46262 15.2395 6.70011 15.2395C6.9376 15.2395 7.1685 15.1614 7.35717 15.0171C7.54584 14.8729 7.6818 14.6706 7.74409 14.4414H8.29853C8.23466 14.8192 8.03914 15.1623 7.74658 15.4098C7.45403 15.6573 7.08332 15.7933 6.70011 15.7937ZM6.23492 14.4414H7.1653C7.11741 14.5221 7.04933 14.589 6.96777 14.6354C6.88621 14.6818 6.79397 14.7063 6.70011 14.7063C6.60625 14.7063 6.51401 14.6818 6.43245 14.6354C6.35089 14.589 6.28282 14.5221 6.23492 14.4414ZM3.99552 13.9005C4.03002 13.2779 4.19789 12.6701 4.48775 12.1181C4.59541 11.918 4.75606 11.7513 4.95212 11.6363C5.14818 11.5213 5.37209 11.4625 5.59934 11.4663H8.05241C8.1605 11.4605 8.26861 11.4774 8.36971 11.5161C8.4708 11.5548 8.56261 11.6144 8.63915 11.691C8.7157 11.7675 8.77526 11.8593 8.81396 11.9604C8.85267 12.0615 8.86964 12.1696 8.86379 12.2777V13.0891C8.86379 13.3817 8.95869 13.6664 9.13425 13.9005H3.99552ZM10.2161 13.9005C10.0487 13.9 9.88553 13.8478 9.74899 13.7509C9.61244 13.6541 9.50919 13.5174 9.45339 13.3595H10.757C10.8276 13.355 10.8984 13.3652 10.9648 13.3896C11.0312 13.414 11.0918 13.4519 11.1427 13.5011C11.1937 13.5502 11.2338 13.6094 11.2605 13.6749C11.2872 13.7404 11.3 13.8108 11.2979 13.8815C11.2083 13.8935 11.1179 13.8998 11.0275 13.9005H10.2161ZM11.9497 13.584C11.9107 13.6282 11.8661 13.6673 11.8172 13.7003C11.7875 13.4958 11.6959 13.3054 11.5547 13.1545C11.4135 13.0036 11.2295 12.8996 11.0275 12.8565V11.4663C11.0519 11.025 10.9107 10.5905 10.6315 10.2478C10.3524 9.90517 9.95541 9.67903 9.5183 9.61367C9.58763 9.37109 9.70642 9.14548 9.86719 8.95105C9.87419 8.94158 9.88051 8.93164 9.88613 8.9213C10.3059 9.26182 10.8111 9.48071 11.3466 9.55417L12.1093 12.87C12.1521 13.1197 12.0948 13.3763 11.9497 13.584ZM12.6502 12.7591L11.9065 9.5731C12.3641 9.57732 12.8163 9.47354 13.2263 9.27019L14.5029 12.2452L13.3237 13.9005H12.3798C12.4985 13.7378 12.5835 13.553 12.63 13.357C12.6764 13.1611 12.6833 12.9578 12.6502 12.7591ZM15.0844 13.9005H14.6192C14.6787 13.7973 14.7706 13.7167 14.8806 13.6712C14.9906 13.6256 15.1126 13.6176 15.2276 13.6484C15.3426 13.6792 15.4443 13.7472 15.5168 13.8416C15.5892 13.9361 15.6285 14.0518 15.6285 14.1709C15.6285 14.29 15.5892 14.4057 15.5168 14.5002C15.4443 14.5947 15.3426 14.6626 15.2276 14.6934C15.1126 14.7242 14.9906 14.7162 14.8806 14.6707C14.7706 14.6251 14.6787 14.5445 14.6192 14.4414H15.0844C15.1561 14.4414 15.2249 14.4129 15.2756 14.3622C15.3263 14.3114 15.3548 14.2426 15.3548 14.1709C15.3548 14.0992 15.3263 14.0304 15.2756 13.9797C15.2249 13.929 15.1561 13.9005 15.0844 13.9005ZM13.9863 13.9005L14.081 13.7679C14.0646 13.8112 14.0511 13.8555 14.0404 13.9005H13.9863ZM15.0844 15.7937C14.7012 15.7933 14.3304 15.6573 14.0379 15.4098C13.7453 15.1623 13.5498 14.8192 13.4859 14.4414H14.0404C14.0996 14.6695 14.2317 14.8721 14.4166 15.0182C14.6016 15.1644 14.8291 15.2462 15.0648 15.2511C15.3004 15.2561 15.5312 15.1839 15.7221 15.0457C15.913 14.9074 16.0535 14.7106 16.1223 14.4851C16.191 14.2597 16.1843 14.0179 16.1031 13.7967C16.0218 13.5754 15.8706 13.3867 15.6723 13.2593C15.474 13.1319 15.2395 13.0728 15.0045 13.0909C14.7695 13.1089 14.5468 13.2033 14.3703 13.3595L14.9464 12.5482C14.9924 12.5482 15.0384 12.5482 15.0844 12.5482C15.5147 12.5482 15.9275 12.7191 16.2318 13.0235C16.5361 13.3278 16.7071 13.7405 16.7071 14.1709C16.7071 14.6013 16.5361 15.0141 16.2318 15.3184C15.9275 15.6227 15.5147 15.7937 15.0844 15.7937Z" fill="#F54749"/>
</svg>
