<svg width="21" height="20" viewBox="0 0 21 20" fill="none" xmlns="http://www.w3.org/2000/svg">
<path d="M10.5886 1.7394C13.1823 1.7394 13.4894 1.74906 14.5141 1.79548C15.1301 1.80297 15.7403 1.91538 16.3181 2.12783C16.7372 2.28841 17.1177 2.5344 17.4353 2.84997C17.7529 3.16554 18.0004 3.54369 18.162 3.96008C18.3758 4.53427 18.4889 5.14063 18.4965 5.75281C18.5427 6.77098 18.5529 7.07621 18.5529 9.65359C18.5529 12.231 18.5432 12.5362 18.4965 13.5544C18.4889 14.1666 18.3758 14.7729 18.162 15.3471C18.0004 15.7635 17.7529 16.1416 17.4353 16.4572C17.1177 16.7728 16.7372 17.0188 16.3181 17.1794C15.7403 17.3918 15.1301 17.5042 14.5141 17.5117C13.4899 17.5577 13.1827 17.5678 10.5886 17.5678C7.99438 17.5678 7.68722 17.5581 6.66306 17.5117C6.047 17.5042 5.4368 17.3918 4.85898 17.1794C4.43995 17.0188 4.0594 16.7728 3.74183 16.4572C3.42427 16.1416 3.17671 15.7635 3.01511 15.3471C2.80132 14.7729 2.6882 14.1666 2.68066 13.5544C2.6344 12.5362 2.62423 12.231 2.62423 9.65359C2.62423 7.07621 2.63394 6.77098 2.68066 5.75281C2.6882 5.14063 2.80132 4.53427 3.01511 3.96008C3.17671 3.54369 3.42427 3.16554 3.74183 2.84997C4.0594 2.5344 4.43995 2.28841 4.85898 2.12783C5.4368 1.91538 6.047 1.80297 6.66306 1.79548C7.68769 1.74952 7.99484 1.7394 10.5886 1.7394ZM10.5886 0C7.95182 0 7.61969 0.0110321 6.5835 0.0579188C5.77723 0.0738547 4.97953 0.225553 4.22431 0.50656C3.57646 0.749114 2.98967 1.12922 2.50488 1.62035C2.01019 2.10226 1.62735 2.68568 1.38311 3.32987C1.10032 4.08033 0.947665 4.87302 0.931628 5.6742C0.88537 6.70295 0.874268 7.033 0.874268 9.65313C0.874268 12.2733 0.88537 12.6033 0.932553 13.633C0.94859 14.4342 1.10125 15.2269 1.38404 15.9773C1.62801 16.6214 2.01053 17.2048 2.50488 17.6868C2.98993 18.1781 3.57705 18.5582 4.22524 18.8006C4.98045 19.0816 5.77816 19.2333 6.58442 19.2493C7.62061 19.2952 7.95136 19.3072 10.5895 19.3072C13.2276 19.3072 13.5584 19.2962 14.5945 19.2493C15.4008 19.2333 16.1985 19.0816 16.9537 18.8006C17.5988 18.5521 18.1847 18.1726 18.6737 17.6863C19.1628 17.2 19.5444 16.6176 19.794 15.9764C20.0768 15.2259 20.2295 14.4333 20.2455 13.6321C20.2917 12.6033 20.3028 12.2733 20.3028 9.65313C20.3028 7.033 20.2917 6.70295 20.2446 5.67329C20.2285 4.8721 20.0759 4.07941 19.7931 3.32895C19.5491 2.68485 19.1666 2.10143 18.6722 1.61943C18.1872 1.12819 17.6001 0.748076 16.9519 0.50564C16.1967 0.224633 15.399 0.0729354 14.5927 0.0569995C13.5574 0.0110322 13.2253 0 10.5886 0Z" fill="#241415"/>
<path d="M10.5869 4.69629C9.60027 4.69629 8.63579 4.98702 7.81544 5.53171C6.99508 6.07641 6.35569 6.8506 5.97812 7.7564C5.60055 8.66219 5.50176 9.6589 5.69424 10.6205C5.88673 11.5821 6.36184 12.4653 7.05949 13.1586C7.75715 13.8519 8.64602 14.324 9.6137 14.5153C10.5814 14.7065 11.5844 14.6084 12.4959 14.2332C13.4075 13.858 14.1866 13.2226 14.7347 12.4074C15.2829 11.5922 15.5754 10.6338 15.5754 9.6534C15.5754 8.3387 15.0499 7.07783 14.1143 6.14819C13.1788 5.21856 11.9099 4.69629 10.5869 4.69629ZM10.5869 12.8711C9.94648 12.8711 9.32042 12.6824 8.78792 12.3288C8.25542 11.9753 7.84038 11.4727 7.5953 10.8848C7.35021 10.2968 7.28609 9.64983 7.41103 9.02566C7.53598 8.40148 7.84437 7.82814 8.29723 7.37814C8.75009 6.92813 9.32706 6.62168 9.95519 6.49752C10.5833 6.37336 11.2344 6.43708 11.8261 6.68063C12.4178 6.92417 12.9235 7.33659 13.2793 7.86574C13.6351 8.39489 13.825 9.017 13.825 9.6534C13.825 10.5068 13.4839 11.3252 12.8766 11.9287C12.2693 12.5321 11.4457 12.8711 10.5869 12.8711Z" fill="#241415"/>
<path d="M15.7739 5.65855C16.4177 5.65855 16.9396 5.13993 16.9396 4.50017C16.9396 3.86042 16.4177 3.3418 15.7739 3.3418C15.1301 3.3418 14.6082 3.86042 14.6082 4.50017C14.6082 5.13993 15.1301 5.65855 15.7739 5.65855Z" fill="#241415"/>
</svg>
