<svg width="60" height="60" viewBox="0 0 60 60" fill="none" xmlns="http://www.w3.org/2000/svg">
<circle opacity="0.05" cx="30" cy="30" r="30" fill="#F54749"/>
<circle opacity="0.1" cx="30" cy="30" r="25" fill="#F54749"/>
<path d="M25.87 39.28C25.08 39.28 24.33 39.09 23.67 38.71C22.11 37.81 21.25 35.98 21.25 33.57V26.44C21.25 24.02 22.11 22.2 23.67 21.3C25.23 20.4 27.24 20.57 29.34 21.78L35.51 25.34C37.6 26.55 38.76 28.21 38.76 30.01C38.76 31.81 37.61 33.47 35.51 34.68L29.34 38.24C28.13 38.93 26.95 39.28 25.87 39.28ZM25.87 22.22C25.33 22.22 24.85 22.34 24.42 22.59C23.34 23.21 22.75 24.58 22.75 26.44V33.56C22.75 35.42 23.34 36.78 24.42 37.41C25.5 38.04 26.98 37.86 28.59 36.93L34.76 33.37C36.37 32.44 37.26 31.25 37.26 30C37.26 28.75 36.37 27.56 34.76 26.63L28.59 23.07C27.61 22.51 26.69 22.22 25.87 22.22Z" fill="#F54749"/>
</svg>
